<?xml version="1.0" encoding="UTF-8" standalone="no"?><!DOCTYPE svg PUBLIC "-//W3C//DTD SVG 1.1//EN" "http://www.w3.org/Graphics/SVG/1.1/DTD/svg11.dtd"><svg width="100%" height="100%" viewBox="0 0 1024 1024" version="1.1" xmlns="http://www.w3.org/2000/svg" xmlns:xlink="http://www.w3.org/1999/xlink" xml:space="preserve" style="fill-rule:evenodd;clip-rule:evenodd;stroke-linejoin:round;stroke-miterlimit:1.41421;"><path d="M512,0c-282.75,0 -512,229.25 -512,512c0,226.25 146.688,418.125 350.156,485.812c25.594,4.688 34.938,-11.125 34.938,-24.625c0,-12.188 -0.469,-52.562 -0.719,-95.312c-142.375,30.937 -172.469,-60.375 -172.469,-60.375c-23.312,-59.125 -56.844,-74.875 -56.844,-74.875c-46.531,-31.75 3.53,-31.125 3.53,-31.125c51.406,3.562 78.47,52.75 78.47,52.75c45.688,78.25 119.875,55.625 149,42.5c4.654,-33 17.904,-55.625 32.5,-68.375c-113.656,-12.937 -233.218,-56.875 -233.218,-253.063c0,-55.938 19.969,-101.562 52.656,-137.406c-5.219,-13 -22.844,-65.094 5.062,-135.562c0,0 42.938,-13.75 140.812,52.5c40.812,-11.406 84.594,-17.031 128.125,-17.219c43.5,0.188 87.312,5.875 128.188,17.281c97.688,-66.312 140.688,-52.5 140.688,-52.5c28,70.531 10.375,122.562 5.125,135.5c32.812,35.844 52.625,81.469 52.625,137.406c0,196.688 -119.75,240 -233.812,252.688c18.438,15.875 34.75,47 34.75,94.75c0,68.438 -0.688,123.625 -0.688,140.5c0,13.625 9.312,29.562 35.25,24.562c203.313,-67.812 349.875,-259.687 349.875,-485.812c0,-282.75 -229.25,-512 -512,-512Z" style="fill:#bdbdbd;fill-rule:nonzero;"/></svg>