<?xml version="1.0" encoding="UTF-8" standalone="no"?>
<svg xmlns:rdf="http://www.w3.org/1999/02/22-rdf-syntax-ns#" xmlns="http://www.w3.org/2000/svg" viewBox="0 0 502 210.6489" height="210.65" width="502" version="1.1" xmlns:cc="http://creativecommons.org/ns#" xmlns:dc="http://purl.org/dc/elements/1.1/">
 <g style="" transform="matrix(.5 0 0 .5 1.3135 .68653)">
  <g style="">
   <path d="m994.04 90.026s-5.82-40.886-23.693-58.893c-22.66-23.626-48.07-23.746-59.72-25.133-83.4-6-208.5-6-208.5-6h-0.25999s-125.11 0-208.51 6c-11.653 1.3867-37.046 1.5067-59.72 25.133-17.867 18.007-23.68 58.893-23.68 58.893s-5.9666 48.006-5.9666 96.019v45.013c0 48.013 5.9666 96.026 5.9666 96.026s5.8133 40.88 23.68 58.893c22.673 23.633 52.46 22.88 65.72 25.353 47.68 4.56 202.63 5.9666 202.63 5.9666s125.24-0.18667 208.64-6.1866c11.647-1.3867 37.053-1.5 59.713-25.133 17.873-18.013 23.693-58.893 23.693-58.893s5.96-48.013 5.96-96.026v-45.013c0-48.013-5.96-96.019-5.96-96.019" fill="#cd201f"/>
  </g>
  <g style="">
   <g transform="matrix(6.6666 0 0 -6.6666 373.24 337.7)">
    <path d="m0 0h-5.688v3.293c-2.157-2.472-3.985-3.72-5.978-3.72-1.748 0-2.963 0.824-3.57 2.315-0.369 0.906-0.631 2.321-0.631 4.399v23.951h5.687v-22.454-2.096c0.133-0.839 0.491-1.147 1.213-1.147 1.089 0 2.074 0.946 3.279 2.645v23.052h5.688v-30.238z"/>
   </g>
   <g transform="matrix(6.6666 0 0 -6.6666 201.59 277.82)">
    <path d="m0 0c0.299-2.994-0.63-4.479-2.396-4.479s-2.694 1.485-2.394 4.479v11.976c-0.3 2.994 0.628 4.397 2.394 4.397 1.767 0 2.698-1.403 2.399-4.397l-0.003-11.976zm5.688 11.377c0 3.231-0.649 5.658-1.796 7.185-1.516 2.069-3.892 2.916-6.288 2.916-2.71 0-4.774-0.847-6.287-2.916-1.166-1.527-1.791-3.98-1.791-7.211l-0.005-10.752c0-3.213 0.556-5.433 1.721-6.946 1.514-2.062 3.968-3.154 6.362-3.154 2.396 0 4.892 1.092 6.408 3.154 1.147 1.513 1.676 3.733 1.676 6.946v10.778z"/>
   </g>
   <g transform="matrix(6.6666 0 0 -6.6666 89.82 227.92)">
    <path d="m0 0v-16.467h-5.988v16.467s-6.205 20.187-7.485 23.95h6.287l4.202-15.77 4.181 15.77h6.287l-7.484-23.95z"/>
   </g>
  </g>
  <g style="" fill="#fff">
   <g transform="matrix(6.6666 0 0 -6.6666 878.2 191.92)">
    <path d="m0 0c0 2.799 0.767 3.562 2.577 3.562 1.797 0 2.512-0.833 2.512-3.599v-3.268l-5.089-0.006v3.311zm10.788-7.796-0.001 6.12c0 3.197-0.63 5.537-1.764 7.05-1.518 2.047-3.676 3.131-6.395 3.131-2.768 0-4.926-1.084-6.493-3.131-1.152-1.513-1.823-3.984-1.823-7.183v-10.478c0-3.179 0.738-5.404 1.889-6.901 1.568-2.044 3.726-3.065 6.561-3.065 2.832 0 5.056 1.07 6.555 3.243 0.66 0.959 1.085 2.046 1.268 3.247 0.049 0.543 0.192 1.78 0.192 3.526v0.848h-5.688c0-2.174 0.011-3.467-0.04-3.762-0.31-1.45-1.087-2.175-2.421-2.175-1.861 0-2.648 1.391-2.628 4.153v5.377h10.788z" fill="#fff"/>
   </g>
   <g transform="matrix(6.6666 0 0 -6.6666 778.4 279.82)">
    <path d="m0 0c0-2.994-0.706-4.142-2.269-4.142-0.892 0-1.92 0.459-2.827 1.366l0.006 18.157c0.906 0.894 1.929 1.365 2.821 1.365 1.563 0 2.269-0.879 2.269-3.873v-12.873zm0.631 21.736c-1.994 0-3.976-1.226-5.727-3.381l0.006 13.081h-5.389v-40.119h5.389l0.008 3.015c1.811-2.241 3.786-3.4 5.713-3.4 2.158 0 3.735 1.155 4.459 3.38 0.361 1.268 0.598 3.22 0.598 5.987v11.975c0 2.834-0.363 4.772-0.725 5.975-0.723 2.24-2.174 3.487-4.332 3.487" fill="#fff"/>
   </g>
   <g transform="matrix(6.6666 0 0 -6.6666 678.61 337.7)">
    <path d="m0 0h-5.687v3.293c-2.158-2.472-3.985-3.72-5.978-3.72-1.748 0-2.963 0.824-3.57 2.315-0.37 0.906-0.632 2.321-0.632 4.399v23.651h5.688v-22.154-2.096c0.133-0.839 0.49-1.147 1.213-1.147 1.089 0 2.074 0.946 3.279 2.645v22.752h5.687v-29.938z" fill="#fff"/>
   </g>
   <g transform="matrix(6.6666 0 0 -6.6666 534.9 337.7)">
    <path d="m0 0h-5.987v34.43h-6.287v5.681l18.861 0.007v-5.688h-6.587v-34.43z" fill="#fff"/>
   </g>
  </g>
 </g>
</svg>
